<?xml version="1.0" encoding="UTF-8"?>
<svg width="228px" height="228px" viewBox="0 0 228 228" version="1.1" xmlns="http://www.w3.org/2000/svg" xmlns:xlink="http://www.w3.org/1999/xlink">
    <!-- Generator: Sketch 53.2 (72643) - https://sketchapp.com -->
    <title>Untitled</title>
    <desc>Created with Sketch.</desc>
    <g id="Page-1" stroke="none" stroke-width="1" fill="none" fill-rule="evenodd">
        <g id="icon" fill-rule="nonzero">
            <path d="M228,211.156952 C228,220.457679 220.457056,228 211.15705,228 L16.8422822,228 C7.54227689,228 0,220.457011 0,211.156952 L0,16.8430484 C0,7.53831559 7.54227689,0 16.8422822,0 L211.156383,0 C220.457056,0 227.999332,7.53831559 227.999332,16.8430484 L227.999332,211.156952 L228,211.156952 Z" id="Shape" fill="#1F4B7F"></path>
            <path d="M192,109.382037 L191.984569,109.382037 C191.984569,86.1301864 173.036202,66.6890139 148.98813,66.0178572 C135.493027,65.6415051 122.556211,71.2307714 113.845697,81.2009132 C105.744807,71.9538655 93.6551926,66.0402293 80.1305636,66.0402293 C55.7507418,66.0402293 36,85.0936223 36,108.658679 L36,163 L56.5376855,163 L56.5376855,109.382037 C56.5376855,96.8463215 67.1459941,86.2867895 80.1151335,86.4061061 C92.8213825,86.5759206 103.060126,96.5254829 103.167953,108.807825 L103.167953,162.992542 L124.276558,162.992542 L124.276558,109.270178 C124.276558,96.7717486 134.861721,86.2271311 147.8,86.3315332 C160.497667,86.4724569 170.756789,96.3854109 170.906826,108.658679 L170.906826,163 L192,163 L192,109.382037 Z" id="mollie" fill="#FFFFFF"></path>
        </g>
    </g>
</svg>